<?xml version="1.0" encoding="UTF-8"?>
<svg xmlns="http://www.w3.org/2000/svg" xmlns:xlink="http://www.w3.org/1999/xlink" width="375pt" height="374.999991pt" viewBox="0 0 375 374.999991" version="1.2">
<defs>
<clipPath id="clip1">
  <path d="M 7 26 L 368.132812 26 L 368.132812 348 L 7 348 Z M 7 26 "/>
</clipPath>
</defs>
<g id="surface1">
<g clip-path="url(#clip1)" clip-rule="nonzero">
<path style=" stroke:none;fill-rule:nonzero;fill:rgb(0%,84.709167%,100%);fill-opacity:1;" d="M 304.363281 130.808594 C 300.621094 129.519531 296.734375 128.300781 292.722656 127.152344 C 293.386719 124.476562 293.996094 121.832031 294.53125 119.238281 C 303.332031 76.605469 297.582031 42.261719 277.902344 30.953125 C 259.027344 20.109375 228.171875 31.414062 197.007812 58.441406 C 194.011719 61.042969 191.003906 63.792969 188.007812 66.675781 C 186 64.769531 184.007812 62.925781 182.015625 61.160156 C 149.351562 32.261719 116.613281 20.082031 96.957031 31.421875 C 78.105469 42.296875 72.523438 74.585938 80.457031 114.988281 C 81.222656 118.890625 82.117188 122.875 83.128906 126.929688 C 78.496094 128.238281 74.023438 129.636719 69.746094 131.121094 C 31.453125 144.425781 7 165.277344 7 186.90625 C 7 209.234375 33.25 231.648438 73.136719 245.234375 C 76.28125 246.304688 79.546875 247.316406 82.914062 248.273438 C 81.820312 252.652344 80.871094 256.949219 80.074219 261.144531 C 72.507812 300.84375 78.417969 332.367188 97.214844 343.167969 C 116.632812 354.332031 149.226562 342.855469 180.957031 315.21875 C 183.472656 313.039062 185.988281 310.714844 188.5 308.292969 C 191.777344 311.417969 195.042969 314.390625 198.277344 317.175781 C 229.019531 343.53125 259.382812 354.175781 278.15625 343.347656 C 297.554688 332.15625 303.871094 298.28125 295.675781 257.089844 C 295.054688 253.933594 294.320312 250.726562 293.515625 247.457031 C 295.804688 246.78125 298.050781 246.078125 300.238281 245.359375 C 341.707031 231.664062 368.675781 209.542969 368.675781 186.90625 C 368.675781 165.199219 343.429688 144.207031 304.363281 130.808594 Z M 295.378906 230.746094 C 293.402344 231.394531 291.367188 232.027344 289.304688 232.632812 C 284.726562 218.203125 278.554688 202.84375 270.980469 186.976562 C 278.199219 171.488281 284.132812 156.332031 288.585938 141.984375 C 292.285156 143.054688 295.875 144.179688 299.335938 145.363281 C 332.804688 156.847656 353.21875 173.828125 353.21875 186.90625 C 353.21875 200.828125 331.179688 218.921875 295.378906 230.746094 Z M 280.515625 260.074219 C 284.148438 278.292969 284.65625 294.761719 282.253906 307.644531 C 280.105469 319.21875 275.769531 326.933594 270.414062 330.015625 C 259.015625 336.589844 234.644531 328.046875 208.367188 305.503906 C 205.34375 302.914062 202.304688 300.15625 199.265625 297.242188 C 209.453125 286.132812 219.640625 273.222656 229.585938 258.875 C 247.0625 257.34375 263.578125 254.808594 278.566406 251.359375 C 279.300781 254.328125 279.953125 257.230469 280.515625 260.074219 Z M 130.308594 328.875 C 119.171875 332.804688 110.304688 332.917969 104.941406 329.832031 C 93.53125 323.273438 88.789062 297.960938 95.257812 264.015625 C 96 260.128906 96.882812 256.132812 97.898438 252.046875 C 112.714844 255.316406 129.113281 257.664062 146.640625 259.074219 C 156.648438 273.109375 167.132812 286.007812 177.683594 297.296875 C 175.382812 299.523438 173.078125 301.632812 170.789062 303.617188 C 156.761719 315.851562 142.703125 324.527344 130.308594 328.875 Z M 78.136719 230.664062 C 60.5 224.652344 45.9375 216.851562 35.953125 208.320312 C 26.984375 200.675781 22.457031 193.070312 22.457031 186.90625 C 22.457031 173.785156 42.089844 157.039062 74.835938 145.660156 C 78.808594 144.28125 82.96875 142.980469 87.285156 141.757812 C 91.8125 156.429688 97.75 171.769531 104.914062 187.273438 C 97.65625 203.011719 91.632812 218.597656 87.0625 233.449219 C 83.988281 232.5625 81.003906 231.632812 78.136719 230.664062 Z M 95.625 112.03125 C 88.828125 77.414062 93.34375 51.304688 104.703125 44.75 C 116.800781 37.769531 143.558594 47.722656 171.75 72.675781 C 173.558594 74.269531 175.367188 75.9375 177.191406 77.664062 C 166.679688 88.910156 156.296875 101.710938 146.375 115.660156 C 129.363281 117.234375 113.082031 119.753906 98.113281 123.136719 C 97.171875 119.363281 96.335938 115.65625 95.625 112.03125 Z M 251.625 150.421875 C 248.050781 144.261719 244.378906 138.246094 240.636719 132.394531 C 252.175781 133.851562 263.226562 135.78125 273.609375 138.140625 C 270.5 148.097656 266.617188 158.503906 262.039062 169.179688 C 258.761719 162.96875 255.285156 156.710938 251.625 150.421875 Z M 188.007812 88.667969 C 195.144531 96.363281 202.277344 104.953125 209.300781 114.273438 C 202.222656 113.941406 195.058594 113.769531 187.839844 113.769531 C 180.691406 113.769531 173.582031 113.9375 166.546875 114.265625 C 173.570312 105.03125 180.773438 96.453125 188.007812 88.667969 Z M 123.984375 150.527344 C 120.410156 156.703125 117.003906 162.929688 113.773438 169.167969 C 109.273438 158.53125 105.425781 148.074219 102.28125 137.976562 C 112.601562 135.675781 123.605469 133.792969 135.070312 132.367188 C 131.273438 138.273438 127.566406 144.332031 123.984375 150.527344 Z M 135.398438 242.53125 C 123.554688 241.222656 112.382812 239.433594 102.066406 237.195312 C 105.261719 226.917969 109.195312 216.246094 113.792969 205.378906 C 117.027344 211.613281 120.445312 217.835938 124.042969 224.03125 L 124.046875 224.03125 C 127.707031 230.339844 131.503906 236.503906 135.398438 242.53125 Z M 188.433594 286.21875 C 181.113281 278.347656 173.808594 269.632812 166.675781 260.269531 C 173.597656 260.539062 180.660156 260.679688 187.839844 260.679688 C 195.214844 260.679688 202.503906 260.507812 209.667969 260.199219 C 202.628906 269.730469 195.511719 278.460938 188.433594 286.21875 Z M 262.179688 204.828125 C 267.011719 215.808594 271.09375 226.425781 274.332031 236.535156 C 263.847656 238.914062 252.515625 240.828125 240.59375 242.261719 C 244.351562 236.335938 248.050781 230.210938 251.699219 223.917969 C 255.382812 217.554688 258.875 211.175781 262.179688 204.828125 Z M 238.304688 216.230469 C 232.652344 226.003906 226.847656 235.324219 220.953125 244.121094 C 210.230469 244.882812 199.140625 245.277344 187.839844 245.277344 C 176.578125 245.277344 165.628906 244.9375 155.089844 244.25 C 148.957031 235.335938 143.03125 225.988281 137.414062 216.316406 C 131.8125 206.671875 126.65625 196.945312 121.984375 187.273438 C 126.65625 177.585938 131.796875 167.84375 137.371094 158.21875 L 137.367188 158.21875 C 142.953125 148.566406 148.832031 139.261719 154.90625 130.398438 C 165.65625 129.585938 176.691406 129.164062 187.839844 129.164062 C 199.042969 129.164062 210.078125 129.589844 220.828125 130.40625 C 226.816406 139.207031 232.652344 148.480469 238.261719 158.136719 C 243.925781 167.898438 249.140625 177.570312 253.84375 187.0625 C 249.152344 196.703125 243.957031 206.476562 238.304688 216.230469 Z M 270.175781 44.289062 C 282.296875 51.246094 287.003906 79.316406 279.386719 116.125 C 278.90625 118.472656 278.355469 120.867188 277.761719 123.289062 C 262.757812 119.839844 246.46875 117.273438 229.417969 115.679688 C 219.472656 101.574219 209.171875 88.753906 198.832031 77.652344 C 201.613281 74.992188 204.398438 72.449219 207.152344 70.050781 C 233.855469 46.894531 258.816406 37.753906 270.175781 44.289062 Z M 187.839844 154.714844 C 205.667969 154.714844 220.136719 169.121094 220.136719 186.902344 C 220.136719 204.667969 205.667969 219.085938 187.839844 219.085938 C 170.007812 219.085938 155.542969 204.667969 155.542969 186.902344 C 155.542969 169.121094 170.007812 154.714844 187.839844 154.714844 Z M 187.839844 154.714844 "/>
</g>
</g>
</svg>
